nColumns=19
nRows=76
DataType=double
version=3
OpenSimVersion=4.1
endheader
time	ground_force_1_vx	ground_force_1_vy	ground_force_1_vz	ground_force_1_px	ground_force_1_py	ground_force_1_pz	ground_force_1_mx	ground_force_1_my	ground_force_1_mz	ground_force_2_vx	ground_force_2_vy	ground_force_2_vz	ground_force_2_px	ground_force_2_py	ground_force_2_pz	ground_force_2_mx	ground_force_2_my	ground_force_2_mz
3.08	-2.80862	2.1923	0.162814	1.16275	0	-0.429297	0	-2.21152e-08	0	115.926	828.207	34.7803	0.671048	0	-0.549752	0	-0.282695	0
3.085	-4.03682	3.5212	0.116062	1.16606	0	-0.429302	0	-1.12983e-07	0	121.882	816.484	30.3181	0.67268	0	-0.548425	0	-0.653737	0
3.09	-6.20736	5.98288	-0.188806	1.16856	0	-0.429121	0	-8.13616e-07	0	127.269	808.009	30.5343	0.674334	0	-0.547072	0	-0.934365	0
3.095	-10.4744	11.0029	-1.27442	1.17028	0	-0.428827	0	-5.56807e-06	0	132.279	800.004	32.1367	0.676038	0	-0.545702	0	-0.99855	0
3.1	-14.6486	19.3524	-4.25156	1.17106	0	-0.428554	0	-5.06276e-05	0	137.247	790.823	32.7749	0.677796	0	-0.544304	0	-0.868524	0
3.105	-7.35158	30.3289	-5.32816	1.17121	0	-0.428584	0	-0.000261118	0	142.346	780.954	33.1891	0.679599	0	-0.542849	0	-0.645504	0
3.11	0.125811	46.6908	-4.03483	1.17184	0	-0.428586	0	-0.000995801	0	147.537	770.034	33.1973	0.681477	0	-0.541292	0	-0.414477	0
3.115	4.18482	80.1123	-0.83575	1.17262	0	-0.428492	0	-0.00349112	0	152.379	757.068	32.155	0.683414	0	-0.539704	0	-0.212215	0
3.12	2.44056	133.015	4.82988	1.17346	0	-0.428289	0	-0.0118325	0	157.031	741.67	30.7104	0.685366	0	-0.538181	0	-0.0314707	0
3.125	-4.4205	191.3	10.7737	1.17463	0	-0.427894	0	-0.0384979	0	161.045	723.66	28.6586	0.687294	0	-0.536809	0	0.139377	0
3.13	-13.6495	244.815	16.3571	1.17645	0	-0.427134	0	-0.103031	0	164.147	703.18	26.0774	0.68914	0	-0.535694	0	0.303207	0
3.135	-23.8639	290.001	21.0854	1.17903	0	-0.425973	0	-0.202395	0	166.181	680.611	23.3789	0.690862	0	-0.534907	0	0.460341	0
3.14	-37.33	324.473	23.0321	1.18214	0	-0.424662	0	-0.322848	0	166.773	656.006	20.61	0.692472	0	-0.534456	0	0.602684	0
3.145	-51.4643	350.709	22.4813	1.18672	0	-0.423093	0	-0.510673	0	166.198	629.024	17.8184	0.694073	0	-0.534253	0	0.717672	0
3.15	-64.8366	380.797	20.213	1.19534	0	-0.420687	0	-0.79799	0	164.269	598.829	15.0118	0.69578	0	-0.534218	0	0.796004	0
3.155	-79.243	418.477	16.5119	1.20776	0	-0.418293	0	-0.868179	0	160.582	564.428	12.159	0.697671	0	-0.534348	0	0.837279	0
3.16	-91.2973	450.758	12.8364	1.22083	0	-0.416944	0	-0.514278	0	155.273	526.062	9.07136	0.699796	0	-0.534672	0	0.849045	0
3.165	-100.23	472.841	10.7305	1.23406	0	-0.416629	0	-0.235117	0	149.39	484.218	5.68346	0.702254	0	-0.535186	0	0.829976	0
3.17	-108.482	493.842	9.43878	1.24837	0	-0.417435	0	-0.387474	0	142.361	436.421	2.08782	0.705305	0	-0.535865	0	0.75936	0
3.175	-114.857	509.597	8.56829	1.26127	0	-0.418621	0	-0.823784	0	129.78	373.21	-1.01937	0.709652	0	-0.536869	0	0.602256	0
3.18	-120.033	520.53	7.25213	1.27158	0	-0.419555	0	-1.2195	0	113.911	295.108	-3.96203	0.716411	0	-0.53849	0	0.353387	0
3.185	-124.883	531.929	4.33402	1.27932	0	-0.420069	0	-1.46378	0	99.2986	225.002	-6.43909	0.725461	0	-0.54073	0	0.10506	0
3.19	-129.254	542.268	-0.63916	1.28503	0	-0.420216	0	-1.6946	0	84.119	185.346	-8.15639	0.731516	0	-0.542502	0	-0.0037121	0
3.195	-133.103	551.985	-7.01085	1.28935	0	-0.420072	0	-2.01419	0	73.3848	170.187	-9.62595	0.731718	0	-0.542547	0	-3.33756e-05	0
3.2	-136.694	565.119	-14.1805	1.29266	0	-0.41968	0	-2.26377	0	71.0866	161.095	-10.2057	0.732373	0	-0.542627	0	-3.49808e-06	0
3.205	-140.179	584.116	-20.8541	1.29535	0	-0.419093	0	-2.37419	0	66.8771	158.017	-10.7663	0.732987	0	-0.542707	0	-2.02543e-06	0
3.21	-142.943	607.692	-25.9519	1.29771	0	-0.418392	0	-2.38719	0	55.1362	150.7	-11.5455	0.73358	0	-0.542804	0	-3.76589e-07	0
3.215	-145.024	634.121	-29.3741	1.29992	0	-0.417673	0	-2.33495	0	43.4115	134.701	-11.7473	0.734376	0	-0.542907	0	-5.96191e-09	0
3.22	-146.201	662.054	-31.4309	1.30209	0	-0.417031	0	-2.28854	0	33.2842	111.875	-11.0855	0.735382	0	-0.543002	0	-1.22391e-11	0
3.225	-146.52	690.27	-32.4479	1.30413	0	-0.416477	0	-2.24345	0	22.8587	84.76	-11.2116	0.736523	0	-0.543133	0	-8.88178e-15	0
3.23	-145.67	719.264	-33.5584	1.30569	0	-0.415888	0	-1.99716	0	9.38316	55.8677	-12.3092	0.737684	0	-0.543305	0	0	0
3.235	-144.05	748.017	-34.9122	1.30659	0	-0.415204	0	-1.47169	0	-2.5497	28.7295	-10.9545	0.738905	0	-0.543409	0	0	0
3.24	-142.041	773.086	-36.2426	1.30709	0	-0.414512	0	-0.911502	0	-4.04897	5.65411	-3.16179	0.740513	0	-0.543129	0	0	0
3.245	-139.387	793.195	-37.4492	1.30748	0	-0.413879	0	-0.528339	0	0.00541069	-0.00547205	0.00174489	0.74445	0	-0.542133	0	-1.30104e-18	0
3.25	-136.427	808.424	-38.0568	1.30801	0	-0.413349	0	-0.349484	0	2.68423e-05	-2.33922e-05	4.26526e-06	0.750224	0	-0.541536	0	-2.11758e-21	0
3.255	-133.234	819.147	-37.8014	1.30881	0	-0.412942	0	-0.330391	0	1.17516e-05	-9.43517e-06	1.04098e-06	0.757263	0	-0.541268	0	1.27055e-21	0
3.26	-129.566	827.233	-37.1493	1.30982	0	-0.4126	0	-0.310961	0	1.4855e-06	-1.0979e-06	6.70854e-08	0.765457	0	-0.541229	0	-1.78671e-22	0
3.265	-125.657	833.464	-36.4473	1.31095	0	-0.41226	0	-0.227387	0	8.23968e-08	-5.59843e-08	1.06079e-09	0.775016	0	-0.541401	0	-8.6854e-24	0
3.27	-121.556	837.255	-36.0284	1.31216	0	-0.411897	0	-0.14065	0	1.24446e-08	-7.86335e-09	-1.3603e-10	0.785876	0	-0.541783	0	-4.32977e-24	0
3.275	-117.333	838.565	-36.1773	1.3135	0	-0.411518	0	-0.0327103	0	6.25224e-09	-3.70842e-09	-1.75948e-10	0.797896	0	-0.542351	0	-1.04173e-23	0
3.28	-113.122	837.615	-36.8022	1.31499	0	-0.411139	0	0.128105	0	5.14439e-09	-2.87449e-09	-2.11296e-10	0.811043	0	-0.543088	0	-3.04247e-23	0
3.285	-109.011	834.466	-37.5504	1.3166	0	-0.410766	0	0.326357	0	8.97275e-09	-4.74476e-09	-4.5649e-10	0.825246	0	-0.543976	0	-1.49565e-22	0
3.29	-105.038	829.26	-38.248	1.31834	0	-0.410405	0	0.554793	0	3.14897e-08	-1.58381e-08	-1.832e-09	0.840387	0	-0.544989	0	-1.31232e-21	0
3.295	-101.251	822.155	-38.67	1.32019	0	-0.410053	0	0.79719	0	2.24515e-07	-1.08001e-07	-1.41773e-08	0.856316	0	-0.546088	0	-2.06564e-20	0
3.3	-97.6304	813.479	-38.8799	1.32211	0	-0.409699	0	1.0551	0	1.90608e-06	-8.80555e-07	-1.26064e-07	0.872929	0	-0.54724	0	-4.09104e-19	0
3.305	-94.1973	803.569	-39.0555	1.32408	0	-0.409333	0	1.3349	0	-1.71323e-06	7.63161e-07	1.15746e-07	0.890107	0	-0.548413	0	-3.93316e-18	0
3.31	-90.9694	792.808	-39.3029	1.32607	0	-0.408958	0	1.6334	0	-2.1121e-05	9.10589e-06	1.42872e-06	0.907742	0	-0.549577	0	1.51426e-17	0
3.315	-87.9308	781.542	-39.6223	1.32803	0	-0.408581	0	1.94854	0	-2.11192e-05	8.8436e-06	1.4043e-06	0.925728	0	-0.550701	0	1.56472e-17	0
3.32	-85.1326	770.015	-39.8999	1.32996	0	-0.408222	0	2.27468	0	-1.79323e-05	7.31463e-06	1.1541e-06	0.943989	0	-0.551766	0	1.93591e-17	0
3.325	-82.5371	758.408	-39.8173	1.33185	0	-0.407893	0	2.59145	0	-1.53725e-05	6.12511e-06	9.43854e-07	0.962446	0	-0.552751	0	3.17637e-22	0
3.33	-80.0723	746.839	-39.2627	1.33368	0	-0.407603	0	2.88625	0	-1.395e-05	5.44212e-06	8.06957e-07	0.981044	0	-0.55365	0	-1.05879e-22	0
3.335	-77.7072	735.343	-38.1567	1.33544	0	-0.407346	0	3.14194	0	-1.37226e-05	5.25306e-06	7.38896e-07	0.999729	0	-0.554453	0	1.58819e-21	0
3.34	-75.3313	723.953	-36.6408	1.3371	0	-0.407106	0	3.34725	0	-1.47318e-05	5.54352e-06	7.29962e-07	1.01847	0	-0.555161	0	9.52912e-22	0
3.345	-72.8846	712.705	-35.0507	1.33865	0	-0.406876	0	3.50283	0	-1.73222e-05	6.41805e-06	7.80822e-07	1.03724	0	-0.555772	0	7.41154e-22	0
3.35	-70.3577	701.626	-33.5839	1.34008	0	-0.406647	0	3.6057	0	-2.22416e-05	8.12487e-06	9.01393e-07	1.05602	0	-0.556292	0	-6.35275e-22	0
3.355	-67.7351	690.846	-32.4728	1.34137	0	-0.406424	0	3.6593	0	-3.10657e-05	1.12025e-05	1.11767e-06	1.07481	0	-0.556723	0	-4.50031e-17	0
3.36	-65.0575	680.433	-31.7189	1.34256	0	-0.40622	0	3.66453	0	-4.68464e-05	1.66928e-05	1.47583e-06	1.09361	0	-0.557071	0	-5.95409e-17	0
3.365	-62.359	670.457	-31.194	1.34367	0	-0.406043	0	3.62095	0	-7.56819e-05	2.66732e-05	2.05511e-06	1.11241	0	-0.557343	0	-1.46478e-16	0
3.37	-59.6663	660.968	-30.8077	1.34473	0	-0.4059	0	3.53632	0	-0.00012973	4.5258e-05	2.9845e-06	1.13124	0	-0.557544	0	-3.43208e-16	0
3.375	-57.0635	651.923	-30.4466	1.34575	0	-0.405789	0	3.40708	0	-0.000233722	8.07728e-05	4.46449e-06	1.15009	0	-0.557684	0	-8.71087e-16	0
3.38	-54.5806	643.295	-30.1264	1.34677	0	-0.405706	0	3.22284	0	-0.000437972	0.000150043	6.78358e-06	1.169	0	-0.557767	0	-2.33397e-15	0
3.385	-52.246	635.081	-29.964	1.34777	0	-0.405648	0	2.99038	0	-0.000845153	0.000287216	1.02998e-05	1.18796	0	-0.557801	0	-6.92097e-15	0
3.39	-50.063	627.29	-30.0315	1.34877	0	-0.405603	0	2.73138	0	-0.00166228	0.00056073	1.53157e-05	1.20699	0	-0.557793	0	-2.11733e-14	0
3.395	-48.0109	619.923	-30.4103	1.34975	0	-0.405567	0	2.46645	0	-0.00330046	0.00110579	2.16795e-05	1.22611	0	-0.557747	0	-6.62784e-14	0
3.4	-46.0745	613.047	-31.0602	1.35071	0	-0.405543	0	2.21085	0	-0.00655477	0.00218252	2.78778e-05	1.24533	0	-0.557668	0	-2.11066e-13	0
3.405	-44.1893	606.813	-31.8322	1.35164	0	-0.405536	0	1.96956	0	-0.0129131	0.00427536	2.91762e-05	1.26467	0	-0.557562	0	-6.81235e-13	0
3.41	-42.2949	601.356	-32.6047	1.35255	0	-0.405559	0	1.73867	0	-0.0250395	0.00824774	1.47495e-05	1.28414	0	-0.557434	0	-2.20922e-12	0
3.415	-40.3821	596.759	-33.181	1.35344	0	-0.405619	0	1.51206	0	-0.047463	0.0155613	-3.62421e-05	1.30375	0	-0.557288	0	-7.14467e-12	0
3.42	-38.4478	593.092	-33.5057	1.35431	0	-0.405717	0	1.28856	0	-0.0874133	0.0285398	-0.000156324	1.3235	0	-0.55713	0	-2.29076e-11	0
3.425	-36.5367	590.362	-33.5635	1.35515	0	-0.405852	0	1.06901	0	-0.155625	0.0506207	-0.000386801	1.34342	0	-0.556965	0	-7.23729e-11	0
3.43	-34.6854	588.52	-33.3732	1.35598	0	-0.406017	0	0.854577	0	-0.266698	0.0864619	-0.000763135	1.36351	0	-0.556799	0	-2.24047e-10	0
3.435	-32.906	587.501	-33.03	1.35678	0	-0.406212	0	0.647812	0	-0.438309	0.141685	-0.00128282	1.38376	0	-0.556636	0	-6.75495e-10	0
3.44	-31.2213	587.231	-32.5611	1.35756	0	-0.406436	0	0.448629	0	-0.687881	0.221826	-0.00188386	1.40418	0	-0.556481	0	-1.97057e-09	0
3.445	-29.6027	587.669	-31.9872	1.35832	0	-0.406688	0	0.262412	0	-1.02712	0.330632	-0.00242757	1.42478	0	-0.556336	0	-5.52452e-09	0
3.45	-28.0099	588.754	-31.3316	1.35906	0	-0.406963	0	0.101617	0	-1.45576	0.468064	-0.00262616	1.44553	0	-0.556204	0	-1.48111e-08	0
3.455	-26.4113	590.392	-30.5893	1.35978	0	-0.407252	0	-0.0296107	0	-1.95681	0.628797	-0.00204973	1.46645	0	-0.556089	0	-3.78162e-08	0
